<?xml version="1.0" standalone="no"?>
<!DOCTYPE svg PUBLIC "-//W3C//DTD SVG 20010904//EN"
 "http://www.w3.org/TR/2001/REC-SVG-20010904/DTD/svg10.dtd">
<svg version="1.0" xmlns="http://www.w3.org/2000/svg"
 width="500.000000pt" height="500.000000pt" viewBox="0 0 500.000000 500.000000"
 preserveAspectRatio="xMidYMid meet">

<g transform="translate(0.000000,500.000000) scale(0.100000,-0.100000)"
fill="#000000" stroke="none">
<path d="M2309 4510 c-681 -61 -1303 -486 -1609 -1100 -132 -266 -189 -474
-212 -778 -24 -320 27 -629 154 -930 38 -90 46 -108 111 -222 130 -229 320
-442 549 -614 289 -217 660 -356 1033 -387 747 -62 1453 283 1868 912 150 227
251 492 304 794 21 122 24 489 4 605 -45 269 -144 542 -279 765 -97 162 -315
409 -457 519 -33 25 -65 50 -70 54 -16 13 -145 96 -185 119 -363 211 -778 301
-1211 263z m171 -1169 l1 -470 -77 -35 c-42 -20 -78 -36 -80 -36 -4 0 -69 -29
-274 -120 -47 -21 -123 -55 -170 -75 -47 -21 -100 -44 -118 -53 -18 -8 -34
-13 -36 -11 -2 2 14 33 35 68 22 35 52 87 68 115 15 28 57 99 94 158 36 59 76
126 88 149 11 23 25 47 30 53 5 6 44 70 86 141 152 260 346 585 349 585 1 0 3
-211 4 -469z m441 -169 c207 -345 375 -628 374 -630 -4 -5 -382 160 -572 249
-34 16 -65 29 -68 29 -3 0 -31 12 -60 27 l-55 26 -2 468 c-2 257 -1 465 2 463
2 -3 174 -287 381 -632z m-441 -778 l0 -405 -58 32 c-31 18 -66 37 -77 43 -11
6 -22 13 -25 16 -3 3 -57 35 -120 71 -63 36 -178 103 -255 149 -77 45 -160 94
-185 107 -25 14 -51 31 -58 37 -13 12 -7 15 248 126 122 54 191 85 370 164 80
36 148 65 152 65 4 1 8 -182 8 -405z m287 305 c115 -50 249 -109 298 -131 211
-92 255 -112 255 -118 0 -3 -28 -20 -62 -38 -35 -18 -112 -62 -173 -99 -60
-36 -182 -108 -270 -159 -88 -51 -165 -98 -172 -104 -7 -5 -15 -10 -18 -10 -3
0 -23 -11 -45 -25 -22 -14 -40 -23 -40 -20 0 3 0 181 0 395 0 215 0 392 0 395
0 12 31 0 227 -86z m-960 -491 c49 -28 131 -77 183 -108 52 -32 111 -65 130
-75 19 -10 37 -21 40 -25 3 -4 16 -13 30 -20 73 -38 283 -166 286 -175 2 -6 3
-150 2 -320 l-3 -310 -82 115 c-45 63 -96 135 -113 160 -17 25 -69 98 -115
162 -46 64 -111 156 -145 205 -33 48 -84 120 -111 158 -28 39 -64 90 -81 115
-17 25 -51 73 -75 108 -25 34 -42 62 -39 62 3 0 45 -23 93 -52z m1460 5 c-18
-27 -65 -93 -103 -148 -38 -55 -106 -152 -151 -215 -45 -63 -91 -128 -103
-145 -11 -16 -76 -108 -143 -202 -67 -95 -144 -204 -171 -243 -27 -39 -52 -67
-55 -63 -3 5 -4 146 -1 315 l5 307 140 84 c77 45 201 118 275 162 74 43 178
104 230 136 52 32 99 58 103 58 5 1 -7 -20 -26 -46z"/>
</g>
</svg>
